<svg xmlns="http://www.w3.org/2000/svg" viewBox="0 0 757.23 291.46"><defs><style>.cls-1{fill:#55a628;fill-rule:evenodd;}.cls-2{font-size:76.73px;font-family:Poppins-ExtraBold, Poppins;font-weight:800;letter-spacing:0.07em;}.cls-3{letter-spacing:0.07em;}</style></defs><g id="Layer_2" data-name="Layer 2"><g id="Layer_1-2" data-name="Layer 1"><path class="cls-1" d="M150.67,156.21c21.81,16.09,71.27,40,88.66,48.72,18.31,9.16,40.87,26.25,42,48.29.65,12.94-8.15,26.8-19.55,33-12.9,7-32.75,2.65-53.38-11.6-19.45-13.45-41.36-35.36-61-61.94-31.56-42.72-37.49-43.8-49.32-43-1.75.12-3.61.26-6.16.31-10.84.22-22-3.38-34.64-13.12-11.81-9.07-25.6-23-40.14-40.33C4.73,101.83-9.92,73.13,9.23,57c3-2.54,6.87-3.12,10.09-3.69,0-.53,0-1.06.05-1.58a28.32,28.32,0,0,1,2.8-10.64A21.2,21.2,0,0,1,33.93,30.48a27.51,27.51,0,0,1,8.79-1.71,20.07,20.07,0,0,1,1.6-6.3,18.33,18.33,0,0,1,8-8.74,21.88,21.88,0,0,1,12-2.48c7.05.47,15.3,3.93,23.49,11.49,28.76,26.54,54,74,47.6,113.81-4.64-18.65-15.77-41.41-23-55.9-10.25-20.5-23.21-38.49-33.62-48.1C72.88,27.08,65.15,21.41,59.46,25c-2.65,1.66-3.31,5.55,1.06,14C67.1,51.78,81.16,69.52,84.73,75.89c2.07,3.69,4,6.72,5.15,9.81,3.84,10.7-5.46,12-9.34,7.39C71.67,82.52,62,65.71,53.31,54.26c-5-6.57-13.11-12.42-17.55-8.14C29.21,52.43,36,63.63,44,75c8.42,11.94,18.35,24,23.15,28.57A6.67,6.67,0,1,1,58,113.21a231.3,231.3,0,0,1-22.26-25c-2.29-3-16.09-21.2-20.44-15.62-6.56,8.4,6.94,28.11,12.4,34.6C41.57,123.71,53.92,136.46,65,145c10.21,7.86,19,11.9,26.65,11.74,1.65,0,3.65-.17,5.53-.3,16.52-1.15,25.57-1.77,61.47,46.83,18.78,25.41,39.28,46,57.58,58.62,16.44,11.37,30.41,16.17,38.46,11.78a19.16,19.16,0,0,0,10.24-18.4,28.32,28.32,0,0,0-3.65-12.14c-4.6-8.44-13.57-17-27.91-24.18C225.26,214.87,177.5,194.21,150.67,156.21Z"/><path class="cls-1" d="M195.6,141.57c-8.82-21-4.22-49.72,3.56-70.33C210.56,41,242.34,7,275,1c31.56-5.77,52.28,13.29,59.32,35.54,9.12,28.79-2.6,65.74-21.86,90.41-17,21.77-40.65,34.59-67.11,41.09-23.36,5.74-24.5,6-40.51,26.95a6.67,6.67,0,0,1-10.61-8.1c18.88-24.66,20.24-25,47.93-31.8,1.4-.34,2.84-.69,6.84-1.7,15.94-4,33.83-16.35,47.67-34.08,12.09-15.48,21-35,22.65-56.44.85-10.81-.72-20.21-4.2-27.69a32.49,32.49,0,0,0-14.75-15.73c-6.43-3.25-14.3-4.31-23.11-2.69-10.31,1.88-21.86,7.37-34,17.17C194.59,73.35,198.7,131.55,195.6,141.57Z"/><path class="cls-1" d="M135.9,184.77a6.66,6.66,0,1,1,7.57,11c-5.83,4-12,8.08-18.36,11.93s-13.17,7.66-20.36,11.25c-14.34,7.17-23.31,15.74-27.91,24.18a28.45,28.45,0,0,0-3.65,12.14,20.07,20.07,0,0,0,2,10,19.53,19.53,0,0,0,8.25,8.38c6.76,3.68,17.9.76,31.24-7.15,15.28-9.05,32.66-24.43,49.55-44.1,2.39-2.8,5.84-2.43,8.63,0s3.89,5.91,1.5,8.71c-17.85,20.79-34.74,39.52-51.22,49.28-21.93,15-50.78,16.94-63.06-7.59-5.58-11.17-4.11-27.26,1.73-38,11.67-21.41,36.84-26.69,56.41-38.54C124.57,192.39,130.49,188.52,135.9,184.77Z"/><text class="cls-2" transform="translate(387.61 143.63)">Kitchen <tspan class="cls-3"><tspan x="0" y="92.08">Savvy</tspan></tspan></text></g></g></svg>